<?xml version="1.0" encoding="utf-8"?>
<!DOCTYPE svg PUBLIC "-//W3C//DTD SVG 1.1//EN" "http://www.w3.org/Graphics/SVG/1.1/DTD/svg11.dtd">
<svg version="1.1" id="Layer_1" xmlns="http://www.w3.org/2000/svg" xmlns:xlink="http://www.w3.org/1999/xlink" x="0px" y="0px"
	 viewBox="0 0 2560 1347.3766" enable-background="new 0 0 2560 1347.3766" xml:space="preserve">
<g>
	<rect x="0.0001" fill="#FFFFFF" width="2560" height="1347.3766"/>
	<linearGradient id="SVGID_1_" gradientUnits="userSpaceOnUse" x1="0" y1="51.8252" x2="2560" y2="51.8252">
		<stop  offset="0" style="stop-color:#550210"/>
		<stop  offset="0.1405" style="stop-color:#C70016"/>
		<stop  offset="0.1886" style="stop-color:#C70016"/>
		<stop  offset="0.3056" style="stop-color:#7B0922"/>
		<stop  offset="0.3452" style="stop-color:#620010"/>
		<stop  offset="0.4529" style="stop-color:#890017"/>
		<stop  offset="0.6323" style="stop-color:#D90522"/>
		<stop  offset="0.7074" style="stop-color:#A6061D"/>
		<stop  offset="0.7891" style="stop-color:#740818"/>
		<stop  offset="0.8295" style="stop-color:#610816"/>
		<stop  offset="0.8763" style="stop-color:#550110"/>
		<stop  offset="0.9385" style="stop-color:#8F0019"/>
		<stop  offset="1" style="stop-color:#441A20"/>
	</linearGradient>
	<rect x="0.0001" y="0.0001" fill="url(#SVGID_1_)" width="2560" height="103.6503"/>
	<linearGradient id="SVGID_2_" gradientUnits="userSpaceOnUse" x1="0" y1="259.1259" x2="2560" y2="259.1259">
		<stop  offset="0" style="stop-color:#550210"/>
		<stop  offset="0.1405" style="stop-color:#C70016"/>
		<stop  offset="0.1886" style="stop-color:#C70016"/>
		<stop  offset="0.3056" style="stop-color:#7B0922"/>
		<stop  offset="0.3452" style="stop-color:#620010"/>
		<stop  offset="0.4529" style="stop-color:#890017"/>
		<stop  offset="0.6323" style="stop-color:#D90522"/>
		<stop  offset="0.7074" style="stop-color:#A6061D"/>
		<stop  offset="0.7891" style="stop-color:#740818"/>
		<stop  offset="0.8295" style="stop-color:#610816"/>
		<stop  offset="0.8763" style="stop-color:#550110"/>
		<stop  offset="0.9385" style="stop-color:#8F0019"/>
		<stop  offset="1" style="stop-color:#441A20"/>
	</linearGradient>
	<rect x="0.0001" y="207.3007" fill="url(#SVGID_2_)" width="2560" height="103.6503"/>
	<linearGradient id="SVGID_3_" gradientUnits="userSpaceOnUse" x1="0" y1="466.4266" x2="2560" y2="466.4266">
		<stop  offset="0" style="stop-color:#550210"/>
		<stop  offset="0.1405" style="stop-color:#C70016"/>
		<stop  offset="0.1886" style="stop-color:#C70016"/>
		<stop  offset="0.3056" style="stop-color:#7B0922"/>
		<stop  offset="0.3452" style="stop-color:#620010"/>
		<stop  offset="0.4529" style="stop-color:#890017"/>
		<stop  offset="0.6323" style="stop-color:#D90522"/>
		<stop  offset="0.7074" style="stop-color:#A6061D"/>
		<stop  offset="0.7891" style="stop-color:#740818"/>
		<stop  offset="0.8295" style="stop-color:#610816"/>
		<stop  offset="0.8763" style="stop-color:#550110"/>
		<stop  offset="0.9385" style="stop-color:#8F0019"/>
		<stop  offset="1" style="stop-color:#441A20"/>
	</linearGradient>
	<rect x="0.0001" y="414.6013" fill="url(#SVGID_3_)" width="2560" height="103.6504"/>
	<linearGradient id="SVGID_4_" gradientUnits="userSpaceOnUse" x1="0" y1="673.7275" x2="2560" y2="673.7275">
		<stop  offset="0" style="stop-color:#550210"/>
		<stop  offset="0.1405" style="stop-color:#C70016"/>
		<stop  offset="0.1886" style="stop-color:#C70016"/>
		<stop  offset="0.3056" style="stop-color:#7B0922"/>
		<stop  offset="0.3452" style="stop-color:#620010"/>
		<stop  offset="0.4529" style="stop-color:#890017"/>
		<stop  offset="0.6323" style="stop-color:#D90522"/>
		<stop  offset="0.7074" style="stop-color:#A6061D"/>
		<stop  offset="0.7891" style="stop-color:#740818"/>
		<stop  offset="0.8295" style="stop-color:#610816"/>
		<stop  offset="0.8763" style="stop-color:#550110"/>
		<stop  offset="0.9385" style="stop-color:#8F0019"/>
		<stop  offset="1" style="stop-color:#441A20"/>
	</linearGradient>
	<rect x="0.0001" y="621.9023" fill="url(#SVGID_4_)" width="2560" height="103.6504"/>
	<linearGradient id="SVGID_5_" gradientUnits="userSpaceOnUse" x1="0" y1="880.9498" x2="2560" y2="880.9498">
		<stop  offset="0" style="stop-color:#550210"/>
		<stop  offset="0.1405" style="stop-color:#C70016"/>
		<stop  offset="0.1886" style="stop-color:#C70016"/>
		<stop  offset="0.3056" style="stop-color:#7B0922"/>
		<stop  offset="0.3452" style="stop-color:#620010"/>
		<stop  offset="0.4529" style="stop-color:#890017"/>
		<stop  offset="0.6323" style="stop-color:#D90522"/>
		<stop  offset="0.7074" style="stop-color:#A6061D"/>
		<stop  offset="0.7891" style="stop-color:#740818"/>
		<stop  offset="0.8295" style="stop-color:#610816"/>
		<stop  offset="0.8763" style="stop-color:#550110"/>
		<stop  offset="0.9385" style="stop-color:#8F0019"/>
		<stop  offset="1" style="stop-color:#441A20"/>
	</linearGradient>
	<rect x="0.0001" y="829.1246" fill="url(#SVGID_5_)" width="2560" height="103.6503"/>
	<linearGradient id="SVGID_6_" gradientUnits="userSpaceOnUse" x1="0" y1="1088.2506" x2="2560" y2="1088.2506">
		<stop  offset="0" style="stop-color:#550210"/>
		<stop  offset="0.1405" style="stop-color:#C70016"/>
		<stop  offset="0.1886" style="stop-color:#C70016"/>
		<stop  offset="0.3056" style="stop-color:#7B0922"/>
		<stop  offset="0.3452" style="stop-color:#620010"/>
		<stop  offset="0.4529" style="stop-color:#890017"/>
		<stop  offset="0.6323" style="stop-color:#D90522"/>
		<stop  offset="0.7074" style="stop-color:#A6061D"/>
		<stop  offset="0.7891" style="stop-color:#740818"/>
		<stop  offset="0.8295" style="stop-color:#610816"/>
		<stop  offset="0.8763" style="stop-color:#550110"/>
		<stop  offset="0.9385" style="stop-color:#8F0019"/>
		<stop  offset="1" style="stop-color:#441A20"/>
	</linearGradient>
	<rect x="0.0001" y="1036.4255" fill="url(#SVGID_6_)" width="2560" height="103.6503"/>
	<linearGradient id="SVGID_7_" gradientUnits="userSpaceOnUse" x1="0" y1="1295.5514" x2="2560" y2="1295.5514">
		<stop  offset="0" style="stop-color:#550210"/>
		<stop  offset="0.1405" style="stop-color:#C70016"/>
		<stop  offset="0.1886" style="stop-color:#C70016"/>
		<stop  offset="0.3056" style="stop-color:#7B0922"/>
		<stop  offset="0.3452" style="stop-color:#620010"/>
		<stop  offset="0.4529" style="stop-color:#890017"/>
		<stop  offset="0.6323" style="stop-color:#D90522"/>
		<stop  offset="0.7074" style="stop-color:#A6061D"/>
		<stop  offset="0.7891" style="stop-color:#740818"/>
		<stop  offset="0.8295" style="stop-color:#610816"/>
		<stop  offset="0.8763" style="stop-color:#550110"/>
		<stop  offset="0.9385" style="stop-color:#8F0019"/>
		<stop  offset="1" style="stop-color:#441A20"/>
	</linearGradient>
	<rect x="0.0001" y="1243.7261" fill="url(#SVGID_7_)" width="2560" height="103.6504"/>
	<linearGradient id="SVGID_8_" gradientUnits="userSpaceOnUse" x1="512.0235" y1="725.5526" x2="512.0235" y2="-2.298839e-008">
		<stop  offset="0" style="stop-color:#030844"/>
		<stop  offset="0.0843" style="stop-color:#435CFA"/>
		<stop  offset="0.1914" style="stop-color:#293881"/>
		<stop  offset="0.2834" style="stop-color:#1736A9"/>
		<stop  offset="0.3232" style="stop-color:#2643C5"/>
		<stop  offset="0.3881" style="stop-color:#435CFA"/>
		<stop  offset="0.4812" style="stop-color:#1038BD"/>
		<stop  offset="0.5876" style="stop-color:#143098"/>
		<stop  offset="0.6925" style="stop-color:#435CFA"/>
		<stop  offset="0.7709" style="stop-color:#1D2663"/>
		<stop  offset="0.868" style="stop-color:#435CFA"/>
		<stop  offset="1" style="stop-color:#03043B"/>
	</linearGradient>
	<rect x="0.0001" fill="url(#SVGID_8_)" width="1024.0469" height="725.5526"/>
	<g>
		<polygon fill="#FFFFFF" points="87.5897,30.2411 78.284,58.9154 48.1039,58.9154 72.5289,76.6249 63.2244,105.2956 
			87.5897,87.5901 111.955,105.2956 102.6506,76.6249 127.0756,58.9154 96.8954,58.9154 		"/>
		<polygon fill="#FFFFFF" points="257.3633,30.2411 248.0576,58.9154 217.8774,58.9154 242.3024,76.6249 232.998,105.2956 
			257.3633,87.5901 281.7286,105.2956 272.4241,76.6249 296.8491,58.9154 266.6689,58.9154 		"/>
		<polygon fill="#FFFFFF" points="427.1368,30.2411 417.8311,58.9154 387.6509,58.9154 412.0563,76.6107 402.6932,105.2956 
			427.1247,87.5814 451.5021,105.2956 442.1976,76.6249 466.6227,58.9154 436.4424,58.9154 		"/>
		<polygon fill="#FFFFFF" points="596.9103,30.2411 587.6047,58.9154 557.4244,58.9154 581.8299,76.6107 572.4667,105.2956 
			596.8982,87.5814 621.2756,105.2956 611.9711,76.6249 636.3962,58.9154 606.2159,58.9154 		"/>
		<polygon fill="#FFFFFF" points="766.6838,30.2411 757.3782,58.9154 727.1979,58.9154 751.5595,76.5789 742.2401,105.2956 
			766.6447,87.601 791.0491,105.2956 781.7401,76.6107 806.0914,58.9154 775.9894,58.9154 		"/>
		<polygon fill="#FFFFFF" points="921.3228,76.6107 912.0137,105.2956 936.4182,87.601 960.8226,105.2956 951.5135,76.6107 
			975.8648,58.9154 945.7629,58.9154 936.4573,30.2411 927.1517,58.9154 896.9714,58.9154 		"/>
		<polygon fill="#FFFFFF" points="172.4373,103.0236 163.1141,131.6978 133.0298,131.6978 157.3811,149.3931 148.072,178.0781 
			172.4765,160.3294 196.8809,178.0781 187.5719,149.3931 211.9232,131.6978 181.8147,131.6978 		"/>
		<polygon fill="#FFFFFF" points="342.2108,103.0236 332.8876,131.6978 302.8033,131.6978 327.1546,149.3931 317.8456,178.0781 
			342.25,160.3294 366.6545,178.0781 357.3454,149.3931 381.6967,131.6978 351.534,131.6978 		"/>
		<polygon fill="#FFFFFF" points="511.9844,103.0236 502.6612,131.6978 472.5768,131.6978 496.9282,149.3931 487.6191,178.0781 
			512.0236,160.3294 536.428,178.0781 527.1086,149.3613 551.4702,131.6978 521.3076,131.6978 		"/>
		<polygon fill="#FFFFFF" points="681.7579,103.0236 672.4347,131.6978 642.272,131.6978 666.6971,149.4073 657.3926,178.0781 
			681.77,160.3097 706.2015,178.0781 696.8383,149.3931 721.2437,131.6978 691.0811,131.6978 		"/>
		<polygon fill="#FFFFFF" points="851.5314,103.0236 842.2082,131.6978 812.0455,131.6978 836.4705,149.4073 827.1661,178.0781 
			851.5435,160.3097 875.975,178.0781 866.6119,149.3931 891.0172,131.6978 860.8546,131.6978 		"/>
		<polygon fill="#FFFFFF" points="87.5897,175.7277 78.284,204.402 48.1039,204.402 72.5289,222.1656 63.2244,250.7822 
			87.5897,233.0767 111.955,250.7822 102.6506,222.1656 127.0756,204.402 96.8954,204.402 		"/>
		<polygon fill="#FFFFFF" points="257.3633,175.7277 248.0576,204.402 217.8774,204.402 242.3024,222.1656 232.998,250.7822 
			257.3633,233.0767 281.7286,250.7822 272.4241,222.1656 296.8491,204.402 266.6689,204.402 		"/>
		<polygon fill="#FFFFFF" points="427.1368,175.7277 417.8311,204.402 387.6509,204.402 412.0563,222.1514 402.6932,250.7822 
			427.1247,233.068 451.5021,250.7822 442.1976,222.1656 466.6227,204.402 436.4424,204.402 		"/>
		<polygon fill="#FFFFFF" points="596.9103,175.7277 587.6047,204.402 557.4244,204.402 581.8299,222.1514 572.4667,250.7822 
			596.8982,233.0679 621.2756,250.7822 611.9711,222.1656 636.3962,204.402 606.2159,204.402 		"/>
		<polygon fill="#FFFFFF" points="766.6838,175.7277 757.3782,204.402 727.1979,204.402 751.5596,222.1196 742.2401,250.7822 
			766.6447,233.0876 791.0491,250.7822 781.7401,222.1514 806.0914,204.402 775.9894,204.402 		"/>
		<polygon fill="#FFFFFF" points="936.4573,175.7277 927.1517,204.402 896.9714,204.402 921.3228,222.1514 912.0137,250.7822 
			936.4182,233.0876 960.8226,250.7822 951.5135,222.1514 975.8648,204.402 945.7629,204.402 		"/>
		<polygon fill="#FFFFFF" points="172.4373,248.5101 163.1317,277.1844 133.0298,277.1844 157.3811,294.8797 148.072,323.5646 
			172.4765,305.8701 196.8809,323.5646 187.5719,294.8796 211.9232,277.1844 181.797,277.1844 		"/>
		<polygon fill="#FFFFFF" points="342.2108,248.5101 332.9053,277.1844 302.8033,277.1844 327.1546,294.8796 317.8456,323.5646 
			342.25,305.8701 366.6545,323.5646 357.3454,294.8797 381.6967,277.1844 351.5164,277.1844 		"/>
		<polygon fill="#FFFFFF" points="511.9844,248.5101 502.6788,277.1844 472.5768,277.1844 496.9282,294.8797 487.6191,323.5646 
			512.0236,305.8701 536.428,323.5646 527.1086,294.8479 551.4702,277.1844 521.29,277.1844 		"/>
		<polygon fill="#FFFFFF" points="681.7579,248.5101 672.4523,277.1844 642.272,277.1844 666.6971,294.8939 657.3926,323.5646 
			681.77,305.8504 706.2015,323.5646 696.8383,294.8797 721.2437,277.1844 691.0635,277.1844 		"/>
		<polygon fill="#FFFFFF" points="851.5314,248.5101 842.2258,277.1844 812.0455,277.1844 836.4705,294.8939 827.1661,323.5646 
			851.5435,305.8504 875.975,323.5646 866.6119,294.8796 891.0172,277.1844 860.837,277.1844 		"/>
		<polygon fill="#FFFFFF" points="87.5897,321.2926 78.2665,349.9669 48.1039,349.9669 72.5289,367.6764 63.2244,396.3471 
			87.5897,378.5875 111.955,396.3471 102.6506,367.6764 127.0756,349.9669 96.9129,349.9669 		"/>
		<polygon fill="#FFFFFF" points="257.3633,321.2926 248.0401,349.9669 217.8774,349.9669 242.3024,367.6764 232.998,396.3471 
			257.3633,378.5875 281.7286,396.3471 272.4241,367.6764 296.8491,349.9669 266.6865,349.9669 		"/>
		<polygon fill="#FFFFFF" points="427.1368,321.2926 417.8136,349.9669 387.6509,349.9669 412.0563,367.6622 402.6932,396.3471 
			427.1247,378.5787 451.5021,396.3471 442.1976,367.6764 466.6227,349.9669 436.46,349.9669 		"/>
		<polygon fill="#FFFFFF" points="596.9103,321.2926 587.5871,349.9669 557.4244,349.9669 581.8299,367.6622 572.4667,396.3471 
			596.8982,378.5787 621.2756,396.3471 611.9711,367.6765 636.3962,349.9669 606.2335,349.9669 		"/>
		<polygon fill="#FFFFFF" points="766.6838,321.2926 757.3606,349.9669 727.1979,349.9669 751.5595,367.6304 742.2401,396.3471 
			766.6447,378.5984 791.0491,396.3471 781.7401,367.6622 806.0914,349.9669 776.007,349.9669 		"/>
		<polygon fill="#FFFFFF" points="936.4573,321.2926 927.1341,349.9669 896.9714,349.9669 921.3228,367.6622 912.0137,396.3471 
			936.4182,378.5984 960.8226,396.3471 951.5135,367.6622 975.8648,349.9669 945.7805,349.9669 		"/>
		<polygon fill="#FFFFFF" points="172.4373,393.9968 163.1317,422.671 133.0298,422.671 157.3875,440.425 148.072,469.1296 
			172.4765,451.3809 196.8809,469.1296 187.5656,440.425 211.9232,422.671 181.797,422.671 		"/>
		<polygon fill="#FFFFFF" points="342.2108,393.9968 332.9053,422.671 302.8033,422.671 327.1609,440.425 317.8456,469.1296 
			342.25,451.3809 366.6545,469.1296 357.3391,440.425 381.6967,422.671 351.5164,422.671 		"/>
		<polygon fill="#FFFFFF" points="511.9844,393.9968 502.6788,422.671 472.5768,422.671 496.9345,440.425 487.6191,469.1296 
			512.0236,451.3809 536.428,469.1296 527.1022,440.3932 551.4702,422.671 521.29,422.671 		"/>
		<polygon fill="#FFFFFF" points="681.7579,393.9968 672.4523,422.671 642.272,422.671 666.7034,440.4393 657.3926,469.1296 
			681.77,451.3612 706.2015,469.1296 696.8319,440.425 721.2437,422.671 691.0635,422.671 		"/>
		<polygon fill="#FFFFFF" points="851.5314,393.9968 842.2258,422.671 812.0455,422.671 836.4769,440.4393 827.1661,469.1296 
			851.5435,451.3612 875.975,469.1296 866.6055,440.425 891.0172,422.671 860.837,422.671 		"/>
		<polygon fill="#FFFFFF" points="87.5897,466.7792 78.2841,495.4534 48.1039,495.4534 72.5431,513.1733 63.2244,541.8337 
			87.5897,524.1282 111.955,541.8337 102.6363,513.1733 127.0756,495.4534 96.8953,495.4534 		"/>
		<polygon fill="#FFFFFF" points="257.3633,466.7792 248.0577,495.4534 217.8774,495.4534 242.3167,513.1733 232.998,541.8337 
			257.3633,524.1282 281.7286,541.8337 272.4099,513.1733 296.8491,495.4534 266.6689,495.4534 		"/>
		<polygon fill="#FFFFFF" points="427.1368,466.7792 417.8312,495.4534 387.6509,495.4534 412.0707,513.1591 402.6932,541.8337 
			427.1247,524.1195 451.5021,541.8337 442.1834,513.1733 466.6227,495.4534 436.4424,495.4534 		"/>
		<polygon fill="#FFFFFF" points="596.9103,466.7792 587.6047,495.4534 557.4244,495.4534 581.8442,513.1591 572.4667,541.8337 
			596.8982,524.1194 621.2756,541.8337 611.9569,513.1733 636.3962,495.4534 606.2159,495.4534 		"/>
		<polygon fill="#FFFFFF" points="766.6838,466.7792 757.3782,495.4534 727.1979,495.4534 751.5738,513.1273 742.2401,541.8337 
			766.6447,524.1391 791.0491,541.8337 781.7258,513.1591 806.0914,495.4534 775.9894,495.4534 		"/>
		<polygon fill="#FFFFFF" points="936.4573,466.7792 927.1517,495.4534 896.9714,495.4534 921.337,513.1591 912.0137,541.8337 
			936.4182,524.1391 960.8226,541.8337 951.4993,513.1591 975.8648,495.4534 945.7629,495.4534 		"/>
		<path fill="#FFFFFF" d="M181.8147,568.2359l-9.3774-28.6742l-9.3232,28.6742h-30.0844l24.3513,17.6953l-9.3091,28.685
			l24.4045-17.6946l24.4044,17.6946l-9.3091-28.685l24.3513-17.6953H181.8147z M172.4765,581.0453L172.4765,581.0453
			L172.4765,581.0453L172.4765,581.0453z"/>
		<path fill="#FFFFFF" d="M351.534,568.2359l-9.3232-28.6742l-9.3231,28.6742h-30.0844l24.3513,17.6953l-9.3091,28.685
			l24.4044-17.6946l24.4045,17.6946l-9.3091-28.685l24.3513-17.6953H351.534z M342.25,581.0453L342.25,581.0453L342.25,581.0453
			L342.25,581.0453z"/>
		<polygon fill="#FFFFFF" points="521.3076,568.2359 511.9844,539.5617 502.6612,568.2359 472.5768,568.2359 496.9282,585.9312 
			487.6191,614.6161 512.0236,596.9216 536.428,614.6161 527.1086,585.8994 551.4702,568.2359 		"/>
		<path fill="#FFFFFF" d="M691.0811,568.2359l-9.3232-28.6742l-9.3232,28.6742H642.272l24.4251,17.7095l-9.3045,28.6707
			l24.3773-17.7142l24.4315,17.7142l-9.3632-28.6849l24.4055-17.6953H691.0811z M681.7579,581.0453L681.7579,581.0453
			L681.7579,581.0453L681.7579,581.0453L681.7579,581.0453z"/>
		<path fill="#FFFFFF" d="M860.8546,568.2359l-9.3231-28.6742l-9.3232,28.6742h-30.1627l24.425,17.7095l-9.3045,28.6708
			l24.3774-17.7142l24.4316,17.7142l-9.3632-28.685l24.4054-17.6953H860.8546z M851.5314,581.0453L851.5314,581.0453
			L851.5314,581.0453L851.5314,581.0453z"/>
		<polygon fill="#FFFFFF" points="96.8953,640.9401 87.5897,612.2658 78.2841,640.9401 48.1039,640.9401 72.5352,658.7083 
			63.2244,687.3986 87.5897,669.639 111.955,687.3986 102.6442,658.7084 127.0756,640.9401 		"/>
		<polygon fill="#FFFFFF" points="266.6689,640.9401 257.3633,612.2658 248.0577,640.9401 217.8774,640.9401 242.3088,658.7084 
			232.998,687.3986 257.3633,669.639 281.7286,687.3986 272.4177,658.7084 296.8491,640.9401 		"/>
		<polygon fill="#FFFFFF" points="436.4424,640.9401 427.1368,612.2658 417.8312,640.9401 387.6509,640.9401 412.0627,658.6941 
			402.6932,687.3986 427.1247,669.6302 451.5021,687.3986 442.1913,658.7084 466.6227,640.9401 		"/>
		<polygon fill="#FFFFFF" points="606.2159,640.9401 596.9103,612.2658 587.6047,640.9401 557.4244,640.9401 581.8363,658.6942 
			572.4667,687.3986 596.8982,669.6302 621.2756,687.3986 611.9648,658.7084 636.3962,640.9401 		"/>
		<polygon fill="#FFFFFF" points="775.9894,640.9401 766.6838,612.2658 757.3782,640.9401 727.1979,640.9401 751.5659,658.6622 
			742.2401,687.3986 766.6447,669.6499 791.0491,687.3986 781.7336,658.6941 806.0914,640.9401 		"/>
		<polygon fill="#FFFFFF" points="945.7629,640.9401 936.4573,612.2658 927.1517,640.9401 896.9714,640.9401 921.3291,658.6941 
			912.0137,687.3986 936.4182,669.6499 960.8226,687.3986 951.5071,658.6941 975.8648,640.9401 		"/>
	</g>
</g>
</svg>
