<?xml version="1.0" standalone="no"?>
<!DOCTYPE svg PUBLIC "-//W3C//DTD SVG 20010904//EN"
 "http://www.w3.org/TR/2001/REC-SVG-20010904/DTD/svg10.dtd">
<svg version="1.0" xmlns="http://www.w3.org/2000/svg"
 width="394.000000pt" height="286.000000pt" viewBox="0 0 394.000000 286.000000"
 preserveAspectRatio="xMidYMid meet">
<metadata>
Created by potrace 1.16, written by Peter Selinger 2001-2019
</metadata>
<g transform="translate(0.000000,286.000000) scale(0.100000,-0.100000)"
fill="#000000" stroke="none">
<path d="M233 2840 c-34 -10 -66 -21 -72 -24 -17 -11 -48 -128 -61 -229 -10
-74 -18 -105 -35 -125 -37 -45 -58 -89 -52 -106 17 -43 207 17 207 65 0 12 8
23 18 25 19 6 49 62 58 110 3 16 13 35 22 41 15 9 17 5 13 -41 -2 -28 2 -81 9
-118 15 -85 4 -112 -38 -96 -44 17 -65 5 -57 -32 6 -25 2 -34 -18 -50 -13 -10
-37 -47 -53 -82 -27 -60 -29 -69 -26 -182 2 -85 7 -125 18 -141 14 -21 13 -30
-5 -90 -12 -37 -21 -91 -21 -121 0 -49 3 -55 25 -64 22 -9 25 -15 25 -64 0
-66 11 -76 90 -83 l60 -6 0 49 c0 28 -7 59 -15 71 -12 17 -13 29 -2 72 6 28
15 51 20 51 14 0 37 -68 37 -108 0 -109 72 -299 138 -367 44 -46 78 -130 87
-220 5 -52 3 -66 -20 -108 l-25 -49 9 -180 c11 -189 9 -200 -31 -245 -11 -11
-22 -39 -25 -61 -7 -51 11 -67 104 -100 106 -36 178 -46 253 -33 36 6 66 15
68 21 2 5 10 10 18 10 8 0 14 9 14 20 0 15 -16 27 -60 47 -33 15 -60 31 -60
35 0 4 20 10 44 13 25 4 51 14 59 24 9 10 19 62 27 141 7 69 16 161 20 205 15
141 13 169 -12 180 -21 9 -23 17 -26 109 -3 92 -1 101 23 135 18 26 25 50 25
82 0 27 9 63 23 89 20 40 35 52 139 110 171 95 279 172 342 244 l55 63 98 23
c99 23 113 28 285 119 54 28 101 51 106 51 5 0 2 -29 -6 -65 -8 -37 -11 -81
-8 -100 6 -31 15 -39 68 -66 42 -21 70 -29 88 -25 15 2 37 2 49 -1 21 -5 22
-11 19 -66 -3 -57 -2 -60 22 -67 132 -39 132 -39 209 -118 91 -94 138 -133
206 -172 28 -16 61 -40 74 -54 14 -14 29 -26 35 -26 17 0 86 -60 86 -74 0 -22
-111 -157 -123 -149 -7 3 -9 3 -5 -2 9 -10 -27 -61 -69 -98 -40 -36 -41 -53
-5 -97 l29 -34 35 17 c36 17 202 215 224 267 l11 24 28 -42 c33 -51 33 -43 16
-322 -11 -165 -11 -227 -2 -268 6 -29 11 -72 11 -95 0 -87 0 -87 110 -87 68 0
101 -4 108 -13 6 -7 17 -51 24 -98 l14 -84 44 3 c103 7 117 38 74 164 -27 76
-27 82 -15 151 7 40 15 117 18 173 6 109 -11 181 -48 207 -16 12 -16 21 -4
127 8 70 21 134 34 163 11 27 21 66 21 88 0 21 8 60 18 87 23 61 83 152 99
152 7 0 12 -3 12 -7 -6 -35 6 -53 54 -86 64 -44 121 -49 196 -16 39 16 54 30
75 69 30 56 31 70 10 170 -8 41 -17 118 -18 170 -2 70 -8 107 -24 140 -11 25
-23 62 -27 83 -4 25 -20 54 -45 81 -22 24 -37 46 -33 50 4 4 0 4 -8 1 -21 -8
-34 10 -53 78 -9 32 -22 60 -29 62 -48 14 -46 9 -30 77 22 92 26 142 18 215
-6 60 -11 69 -50 109 -49 49 -87 60 -170 49 -37 -4 -67 -16 -97 -38 -24 -17
-50 -32 -58 -34 -8 -1 -22 -12 -30 -25 -8 -13 -25 -33 -38 -44 -20 -20 -22
-26 -13 -65 6 -24 11 -57 11 -74 0 -16 7 -43 16 -60 22 -41 25 -181 4 -199 -8
-7 -45 -28 -81 -45 -78 -38 -132 -91 -149 -146 -7 -22 -21 -57 -31 -77 -11
-21 -19 -53 -19 -73 0 -31 -3 -35 -22 -32 -28 5 -63 19 -144 58 -34 16 -77 29
-95 29 -57 0 -208 56 -242 90 -18 17 -42 33 -54 36 -30 8 -114 -26 -121 -48
-5 -21 -11 -22 -49 -7 -41 15 -71 47 -79 83 -3 17 -11 37 -18 45 -9 11 -4 13
29 7 126 -19 121 -19 143 5 12 12 24 39 27 58 3 20 14 74 25 121 25 105 25
117 0 132 -11 7 -20 21 -20 31 0 42 -112 48 -125 7 -3 -11 -9 -19 -13 -19 -31
5 -34 -2 -30 -56 4 -52 3 -56 -26 -79 -47 -35 -70 -45 -148 -65 l-73 -17 -75
44 c-73 44 -139 72 -166 72 -7 0 -46 -29 -86 -64 -80 -69 -150 -109 -272 -152
-43 -15 -94 -38 -114 -52 -20 -13 -59 -31 -87 -39 -27 -8 -59 -21 -70 -29 -32
-23 -50 -16 -70 29 -17 36 -26 44 -62 52 -52 13 -57 18 -43 44 11 22 98 71
124 71 33 0 107 45 112 67 15 58 -48 118 -115 111 -27 -2 -38 -10 -52 -38 -25
-47 -49 -56 -156 -64 l-93 -7 0 49 c0 39 5 53 25 72 14 13 25 34 25 48 0 13
13 37 30 54 l30 29 26 -20 c40 -31 56 -28 49 12 -3 17 -7 76 -9 131 -2 75 -6
101 -18 110 -8 6 -25 30 -37 53 -37 74 -121 109 -232 98 -58 -6 -69 -5 -69 8
0 31 -47 73 -97 84 -88 21 -108 22 -170 3z"/>
</g>
</svg>
