<?xml version="1.0" standalone="no"?>
<!DOCTYPE svg PUBLIC "-//W3C//DTD SVG 20010904//EN"
 "http://www.w3.org/TR/2001/REC-SVG-20010904/DTD/svg10.dtd">
<svg version="1.0" xmlns="http://www.w3.org/2000/svg"
 width="34.000000pt" height="34.000000pt" viewBox="0 0 34.000000 34.000000"
 preserveAspectRatio="xMidYMid meet">
<metadata>
Created by potrace 1.16, written by Peter Selinger 2001-2019
</metadata>
<g transform="translate(0.000000,34.000000) scale(0.100000,-0.100000)"
fill="#000000" stroke="none">
<path d="M224 286 c-3 -9 -4 -23 -1 -31 4 -8 2 -17 -3 -20 -6 -4 -10 -1 -10 5
0 6 -5 8 -10 5 -6 -4 -8 -11 -5 -16 4 -5 -1 -9 -9 -9 -9 0 -16 7 -16 16 0 13
-7 11 -34 -10 -35 -26 -106 -37 -106 -15 0 5 -4 8 -9 5 -5 -4 -12 -1 -14 4 -3
6 -4 5 -3 -2 1 -6 11 -16 22 -22 10 -6 22 -15 25 -19 3 -4 39 -17 80 -27 41
-11 57 -17 36 -14 -21 3 -45 8 -53 11 -11 4 -13 -2 -7 -27 7 -36 4 -36 -53 7
-23 17 -33 20 -42 11 -7 -7 -12 -17 -12 -22 0 -6 5 -4 11 4 9 12 10 11 6 -8
-3 -13 -1 -20 5 -16 5 3 8 0 6 -7 -1 -8 0 -14 4 -14 12 0 47 -38 42 -46 -3 -5
3 -6 12 -2 12 4 15 3 10 -5 -5 -8 -1 -10 10 -5 10 3 15 2 12 -3 -4 -5 19 -9
52 -9 32 0 56 3 54 6 -5 9 26 20 37 13 13 -7 7 19 -6 28 -5 4 0 8 12 8 12 0
25 5 28 10 4 6 11 8 16 5 5 -3 6 2 2 11 -4 12 -3 15 5 10 8 -5 10 -1 5 10 -4
10 -2 15 3 11 6 -4 9 6 6 24 -5 31 -28 39 -50 17 -16 -16 -15 -8 4 37 13 32
13 38 0 48 -8 7 -16 21 -18 32 -4 24 -36 32 -44 11z"/>
</g>
</svg>
